<svg width="922" height="373" viewBox="0 0 922 373" fill="none" xmlns="http://www.w3.org/2000/svg">
<path d="M135.39 12.47H108.38C99.5201 12.47 91.5901 17.94 88.4501 26.22L3.82007 249.07H45.4001L121.93 52.02L198.46 249.07H240.04L155.44 26.29C152.27 17.97 144.29 12.47 135.39 12.47Z" fill="#E9E8EF"/>
<path d="M340.94 71.72H282.03C270.41 71.72 260.99 81.12 260.99 92.71V248.89H302.18V105.39H340.94C371.85 105.39 396.9 130.39 396.9 161.22V248.88H438.16V168.7C438.16 115.14 394.63 71.72 340.94 71.72Z" fill="#E9E8EF"/>
<path d="M548.91 71.72H490C478.38 71.72 468.96 81.12 468.96 92.71V248.89H510.15V105.39H548.91C579.82 105.39 604.87 130.39 604.87 161.22V248.88H646.13V168.7C646.12 115.14 602.6 71.72 548.91 71.72Z" fill="#E9E8EF"/>
<path d="M830.09 71.72H809.93L809.87 215.21H771.18C740.27 215.21 715.22 190.21 715.22 159.38V92.98C715.22 81.24 705.7 71.72 693.96 71.72H673.96V151.9C673.96 205.47 717.49 248.89 771.18 248.89H809.87V277.64C809.87 308.47 784.82 333.47 753.91 333.47H715.22V367.15H753.91C807.6 367.15 851.13 323.73 851.13 270.16V92.76C851.12 81.13 841.71 71.72 830.09 71.72Z" fill="#E9E8EF"/>
<path d="M906.48 1.16004L825.85 19.86C819.49 21.33 814.99 27 814.99 33.53C814.99 41.28 821.27 47.56 829.02 47.56H843.86C861.01 47.56 874.92 61.46 874.92 78.62V93.46C874.92 101.21 881.2 107.49 888.95 107.49C895.48 107.49 901.15 102.99 902.62 96.63L921.32 16C923.38 7.09003 915.39 -0.899963 906.48 1.16004Z" fill="url(#paint0_linear_22_77)"/>
<path d="M331.29 372.23C330.97 371.92 330.82 371.53 330.82 371.08V333.89H318.33C317.88 333.89 317.5 333.73 317.18 333.42C316.87 333.11 316.71 332.7 316.71 332.2V327.14C316.71 326.65 316.86 326.24 317.15 325.93C317.44 325.62 317.84 325.46 318.33 325.46H352.82C353.31 325.46 353.72 325.62 354.03 325.93C354.34 326.24 354.5 326.65 354.5 327.14V332.2C354.5 332.7 354.34 333.1 354.03 333.42C353.72 333.74 353.31 333.89 352.82 333.89H340.4V371.08C340.4 371.53 340.25 371.91 339.96 372.23C339.67 372.55 339.27 372.7 338.78 372.7H332.43C331.99 372.71 331.61 372.55 331.29 372.23Z" fill="#3CA691"/>
<path d="M493.66 372.23C493.35 371.92 493.19 371.53 493.19 371.08V327.14C493.19 326.65 493.34 326.24 493.63 325.93C493.92 325.62 494.31 325.46 494.81 325.46H511.28C524.56 325.46 531.33 331.58 531.6 343.82C531.69 346.43 531.73 348.19 531.73 349.08C531.73 349.94 531.68 351.67 531.6 354.28C531.42 360.58 529.72 365.23 526.5 368.22C523.28 371.21 518.32 372.71 511.62 372.71H494.81C494.36 372.71 493.98 372.55 493.66 372.23ZM511.28 364.88C515.02 364.88 517.72 364.05 519.38 362.38C521.04 360.71 521.92 357.95 522.01 354.08C522.1 351.38 522.15 349.69 522.15 349.02C522.15 348.3 522.1 346.64 522.01 344.02C521.92 340.33 521 337.62 519.24 335.89C517.49 334.16 514.72 333.29 510.94 333.29H502.71V364.88H511.28V364.88Z" fill="#3CA691"/>
<path d="M9.47003 371.14C6.59003 369.93 4.41004 368.33 2.92004 366.35C1.44004 364.37 0.650059 362.21 0.560059 359.87C0.560059 359.51 0.690083 359.18 0.960083 358.89C1.23008 358.6 1.57003 358.45 1.97003 358.45H8.11005C8.60005 358.45 9.01007 358.56 9.32007 358.79C9.63007 359.02 9.93007 359.33 10.2001 359.73C10.6501 361.26 11.6701 362.54 13.2701 363.58C14.8701 364.62 17.06 365.13 19.85 365.13C23 365.13 25.37 364.6 26.97 363.54C28.57 362.48 29.3701 361.03 29.3701 359.19C29.3701 357.97 28.96 356.96 28.16 356.15C27.35 355.34 26.12 354.63 24.48 354.02C22.84 353.41 20.4 352.68 17.16 351.83C11.85 350.57 7.96004 348.91 5.48004 346.83C3.00004 344.76 1.77008 341.79 1.77008 337.92C1.77008 335.31 2.49005 332.98 3.93005 330.93C5.37005 328.88 7.43005 327.28 10.11 326.1C12.79 324.93 15.9001 324.34 19.4601 324.34C23.1901 324.34 26.4201 324.99 29.1501 326.3C31.8701 327.61 33.94 329.24 35.36 331.19C36.78 333.15 37.5301 335.1 37.6201 337.03C37.6201 337.39 37.4901 337.72 37.2101 338.01C36.9401 338.3 36.6001 338.45 36.2001 338.45H29.79C28.8 338.45 28.1201 338.04 27.7601 337.23C27.5301 335.79 26.6601 334.59 25.1301 333.62C23.6001 332.65 21.7101 332.17 19.4601 332.17C16.9801 332.17 15.0401 332.64 13.6201 333.59C12.2001 334.54 11.4901 335.91 11.4901 337.71C11.4901 338.93 11.8501 339.94 12.5701 340.75C13.2901 341.56 14.4101 342.27 15.9501 342.88C17.4801 343.49 19.7101 344.17 22.6301 344.94C26.6401 345.84 29.8201 346.85 32.1801 347.98C34.5401 349.11 36.29 350.52 37.41 352.23C38.53 353.94 39.1 356.12 39.1 358.78C39.1 361.71 38.3001 364.24 36.7001 366.37C35.1001 368.51 32.8501 370.14 29.9501 371.26C27.0501 372.38 23.68 372.95 19.86 372.95C15.81 372.96 12.34 372.35 9.47003 371.14Z" fill="#3CA691"/>
<path d="M58.92 372.49C58.61 372.18 58.4501 371.79 58.4501 371.34V327.4C58.4501 326.91 58.6001 326.5 58.8901 326.19C59.1801 325.88 59.5701 325.72 60.0701 325.72H65.54C66.39 325.72 67.0701 326.15 67.5701 327L80.6 351.17L93.6301 327C94.1301 326.15 94.8 325.72 95.66 325.72H101.06C101.55 325.72 101.96 325.88 102.27 326.19C102.58 326.5 102.74 326.91 102.74 327.4V371.34C102.74 371.84 102.58 372.23 102.27 372.52C101.96 372.81 101.55 372.96 101.06 372.96H95.2501C94.8001 372.96 94.42 372.8 94.1 372.49C93.78 372.18 93.6301 371.79 93.6301 371.34V342.32L84.2501 360.14C83.7501 361.13 83.0101 361.62 82.0201 361.62H79.1901C78.2501 361.62 77.4801 361.13 76.9001 360.14L67.5201 342.32V371.34C67.5201 371.79 67.3701 372.17 67.0801 372.49C66.7901 372.81 66.3901 372.96 65.9001 372.96H60.0901C59.6101 372.96 59.23 372.8 58.92 372.49Z" fill="#3CA691"/>
<path d="M251.91 371.81C251.59 371.5 251.44 371.11 251.44 370.66V333.47H238.95C238.5 333.47 238.12 333.31 237.8 333C237.49 332.69 237.33 332.28 237.33 331.78V326.72C237.33 326.23 237.48 325.82 237.77 325.51C238.06 325.2 238.46 325.04 238.95 325.04H273.44C273.94 325.04 274.34 325.2 274.66 325.51C274.98 325.82 275.13 326.23 275.13 326.72V331.78C275.13 332.28 274.97 332.68 274.66 333C274.35 333.32 273.94 333.47 273.44 333.47H261.02V370.66C261.02 371.11 260.87 371.49 260.58 371.81C260.29 372.13 259.89 372.28 259.4 372.28H253.05C252.61 372.28 252.23 372.13 251.91 371.81Z" fill="#3CA691"/>
<path d="M411.68 370.65L401.89 353.44C404.72 352.45 406.93 350.84 408.5 348.61C410.07 346.38 410.86 343.63 410.86 340.34C410.86 335.61 409.3 331.97 406.17 329.4C403.04 326.83 398.71 325.55 393.18 325.55H375.7C375.2 325.55 374.81 325.71 374.52 326.02C374.23 326.33 374.08 326.74 374.08 327.23V371.17C374.08 371.62 374.24 372 374.55 372.32C374.86 372.64 375.25 372.79 375.7 372.79H381.91C382.41 372.79 382.81 372.63 383.13 372.32C383.44 372.01 383.6 371.62 383.6 371.17V356.59V354.97V347.27V346.97V333.1H392.98C395.68 333.1 397.71 333.72 399.06 334.96C400.41 336.2 401.08 337.96 401.08 340.26C401.08 342.56 400.41 344.3 399.06 345.49C398.24 346.22 397.13 346.7 395.8 346.98L395.92 346.99C391.35 348.07 391.73 351.67 392.2 352.86C392.98 354.84 401.49 370.97 401.49 370.97C401.8 371.51 402.17 371.95 402.57 372.29C402.98 372.63 403.54 372.8 404.26 372.8H410.47C410.83 372.8 411.15 372.66 411.45 372.39C411.75 372.12 411.89 371.78 411.89 371.38C411.88 371.17 411.81 370.92 411.68 370.65Z" fill="#3CA691"/>
<path d="M474.53 370.68L458.33 327.14C457.88 326.02 457.07 325.45 455.9 325.45H448.47C447.3 325.45 446.49 326.01 446.04 327.14L429.84 370.68L429.7 371.29C429.7 371.7 429.84 372.03 430.11 372.3C430.38 372.57 430.72 372.71 431.12 372.71H437.13C438.07 372.71 438.73 372.28 439.09 371.43L439.34 370.77L452.18 334.65L463.79 367.52L465.28 371.44C465.64 372.3 466.29 372.72 467.24 372.72H473.25C473.61 372.72 473.94 372.58 474.23 372.31C474.52 372.04 474.67 371.7 474.67 371.3L474.53 370.68Z" fill="#3CA691"/>
<path d="M165.15 370.68L148.95 327.14C148.5 326.02 147.69 325.45 146.52 325.45H139.09C137.92 325.45 137.11 326.01 136.66 327.14L120.46 370.68L120.32 371.29C120.32 371.7 120.46 372.03 120.73 372.3C121 372.57 121.34 372.71 121.74 372.71H127.75C128.69 372.71 129.35 372.28 129.71 371.43L129.96 370.77L142.8 334.65L154.41 367.52L155.9 371.44C156.26 372.3 156.91 372.72 157.86 372.72H163.87C164.23 372.72 164.56 372.58 164.85 372.31C165.14 372.04 165.29 371.7 165.29 371.3L165.15 370.68Z" fill="#3CA691"/>
<path d="M222.67 370.55L212.88 353.34C215.71 352.35 217.92 350.74 219.49 348.51C221.06 346.28 221.85 343.53 221.85 340.24C221.85 335.51 220.29 331.87 217.16 329.3C214.03 326.73 209.7 325.45 204.17 325.45H186.69C186.19 325.45 185.8 325.61 185.51 325.92C185.22 326.23 185.07 326.64 185.07 327.13V371.07C185.07 371.52 185.23 371.9 185.54 372.22C185.85 372.54 186.24 372.69 186.69 372.69H192.9C193.4 372.69 193.8 372.53 194.12 372.22C194.43 371.91 194.59 371.52 194.59 371.07V356.49V354.87V347.17V346.87V333H203.97C206.67 333 208.7 333.62 210.05 334.86C211.4 336.1 212.07 337.86 212.07 340.16C212.07 342.46 211.4 344.2 210.05 345.39C209.23 346.12 208.12 346.6 206.79 346.88L206.91 346.89C202.34 347.97 202.72 351.57 203.19 352.76C203.97 354.74 212.48 370.87 212.48 370.87C212.79 371.41 213.16 371.85 213.56 372.19C213.97 372.53 214.53 372.7 215.25 372.7H221.46C221.82 372.7 222.14 372.56 222.44 372.29C222.74 372.02 222.88 371.68 222.88 371.28C222.87 371.06 222.8 370.82 222.67 370.55Z" fill="#3CA691"/>
<path d="M553.11 372.34C552.82 372.02 552.67 371.64 552.67 371.19V327.08C552.67 326.59 552.82 326.19 553.11 325.9C553.4 325.61 553.75 325.46 554.17 325.46H560.16C560.62 325.46 560.98 325.61 561.25 325.9C561.52 326.19 561.66 326.59 561.66 327.08V371.19C561.66 371.64 561.52 372.02 561.25 372.34C560.98 372.66 560.62 372.81 560.16 372.81H554.17C553.75 372.81 553.4 372.66 553.11 372.34Z" fill="#3CA691"/>
<path d="M584.04 372.34C583.72 372.02 583.57 371.64 583.57 371.19V327.15C583.57 326.65 583.72 326.25 584.01 325.93C584.3 325.61 584.7 325.46 585.19 325.46H590.47C591.33 325.46 591.98 325.84 592.43 326.61L611.78 356.65V327.15C611.78 326.65 611.93 326.25 612.22 325.93C612.51 325.61 612.91 325.46 613.4 325.46H619.22C619.72 325.46 620.12 325.62 620.44 325.93C620.76 326.25 620.91 326.65 620.91 327.15V371.12C620.91 371.62 620.75 372.02 620.44 372.34C620.12 372.66 619.74 372.81 619.29 372.81H613.95C613.05 372.81 612.37 372.43 611.92 371.66L592.64 342.3V371.19C592.64 371.64 592.49 372.02 592.2 372.34C591.91 372.66 591.51 372.81 591.02 372.81H585.2C584.74 372.81 584.35 372.66 584.04 372.34Z" fill="#3CA691"/>
<path d="M643.41 368.27C640.07 365.17 638.29 360.84 638.07 355.29C638.03 354.02 638 351.99 638 349.2C638 346.41 638.02 344.37 638.07 343.11C638.24 337.69 640.04 333.44 643.44 330.36C646.85 327.28 651.52 325.74 657.46 325.74C661.48 325.74 664.94 326.43 667.85 327.8C670.75 329.18 672.95 330.88 674.44 332.91C675.92 334.94 676.71 336.94 676.8 338.9C676.8 339.29 676.67 339.62 676.41 339.88C676.15 340.14 675.8 340.27 675.36 340.27H668.48C668.04 340.27 667.71 340.18 667.5 340.01C667.28 339.84 667.08 339.55 666.91 339.16C666.3 337.54 665.23 336.17 663.7 335.03C662.17 333.89 660.1 333.33 657.48 333.33C654.42 333.33 652.03 334.15 650.3 335.79C648.57 337.43 647.67 339.97 647.58 343.42C647.54 344.69 647.52 346.61 647.52 349.19C647.52 351.72 647.54 353.65 647.58 354.96C647.67 358.5 648.59 361.11 650.33 362.79C652.08 364.47 654.48 365.31 657.54 365.31C660.64 365.31 663.13 364.48 665.01 362.82C666.89 361.16 667.83 358.67 667.83 355.35V353.32H659.84C659.4 353.32 659.03 353.17 658.73 352.86C658.42 352.56 658.27 352.18 658.27 351.75V348.15C658.27 347.71 658.42 347.34 658.73 347.04C659.03 346.73 659.41 346.58 659.84 346.58H675.57C676.05 346.58 676.44 346.73 676.75 347.04C677.05 347.35 677.21 347.72 677.21 348.15V355.09C677.21 358.72 676.4 361.87 674.79 364.56C673.17 367.25 670.88 369.31 667.91 370.75C664.94 372.19 661.47 372.91 657.49 372.91C651.44 372.93 646.75 371.38 643.41 368.27Z" fill="#3CA691"/>
<defs>
<linearGradient id="paint0_linear_22_77" x1="849.057" y1="73.4188" x2="918.013" y2="4.46335" gradientUnits="userSpaceOnUse">
<stop stop-color="#149B8B"/>
<stop offset="1" stop-color="#78BDAC"/>
</linearGradient>
</defs>
</svg>
